<?xml version="1.0" encoding="UTF-8" standalone="no"?>
<svg width="12px" height="12px" viewBox="0 0 12 12" version="1.1" xmlns="http://www.w3.org/2000/svg" xmlns:xlink="http://www.w3.org/1999/xlink">
    <!-- Generator: Sketch 50.2 (55047) - http://www.bohemiancoding.com/sketch -->
    <title>Group</title>
    <desc>Created with Sketch.</desc>
    <defs></defs>
    <g id="Page-1" stroke="none" stroke-width="1" fill="none" fill-rule="evenodd">
        <g id="04_Container-Cluster-Management" transform="translate(-880.000000, -463.000000)" fill="#4A4A4A">
            <g id="04_Migration_C2C" transform="translate(346.000000, 50.000000)">
                <g id="Group-7-Copy" transform="translate(49.000000, 373.000000)">
                    <g id="Dynamic-group-Copy-2" transform="translate(244.000000, 31.000000)">
                        <g id="Group" transform="translate(241.000000, 9.000000)">
                            <path d="M11.6936471,0.307058824 C11.4734118,0.0868235294 11.1148235,0.0868235294 10.8945882,0.307058824 L6.21247059,4.98917647 L1.52752941,0.307058824 C1.30729412,0.0868235294 0.951529412,0.0868235294 0.730588235,0.307058824 C0.510352941,0.528 0.510352941,0.883764706 0.730588235,1.104 L5.41270588,5.78894118 L0.730588235,10.4710588 C0.510352941,10.6912941 0.510352941,11.0498824 0.730588235,11.2701176 C0.840705882,11.3809412 0.984705882,11.436 1.13082353,11.436 C1.27411765,11.436 1.41741176,11.3809412 1.52752941,11.2701176 L6.21247059,6.58588235 L10.8945882,11.2701176 C11.0047059,11.3809412 11.1508235,11.436 11.2941176,11.436 C11.4374118,11.436 11.5835294,11.3809412 11.6936471,11.2701176 C11.9145882,11.0498824 11.9145882,10.6912941 11.6936471,10.4710588 L7.00941176,5.78894118 L11.6936471,1.104 C11.9145882,0.883764706 11.9145882,0.528 11.6936471,0.307058824 Z" id="Fill-2"></path>
                        </g>
                    </g>
                </g>
            </g>
        </g>
    </g>
</svg>