<?xml version="1.0" encoding="utf-8"?>
<svg width="14px" height="16px" viewBox="0 0 14 16" version="1.1" xmlns:xlink="http://www.w3.org/1999/xlink" xmlns="http://www.w3.org/2000/svg">
  <g id="Group-6" transform="translate(0.5999756 0.5999756)">
    <path d="M12.5997 2.78651C10.2687 2.55552 7.92379 2.43652 5.58585 2.43652C4.19989 2.43652 2.81393 2.50652 1.42796 2.64652L0 2.78651" id="Vector-3" fill="none" stroke="#FFFFFF" stroke-width="1.2" stroke-linecap="round" stroke-linejoin="round" />
    <path d="M3.84961 2.07895L4.00361 1.16197C4.1156 0.496987 4.1996 0 5.38257 0L7.21652 0C8.39949 0 8.49049 0.524986 8.59549 1.16897L8.74948 2.07895" id="Vector-4" fill="none" stroke="#FFFFFF" stroke-width="1.2" stroke-linecap="round" stroke-linejoin="round" />
    <path d="M11.0951 4.99805L10.6401 12.0469C10.5631 13.1458 10.5001 13.9998 8.54719 13.9998L4.0533 13.9998C2.10036 13.9998 2.03736 13.1458 1.96036 12.0469L1.50537 4.99805" id="Vector-5" fill="none" stroke="#FFFFFF" stroke-width="1.2" stroke-linecap="round" stroke-linejoin="round" />
    <path d="M5.13086 10.1504L7.4618 10.1504" id="Vector-6" fill="none" stroke="#FFFFFF" stroke-width="1.2" stroke-linecap="round" stroke-linejoin="round" />
    <path d="M4.5498 7.34961L8.04971 7.34961" id="Vector-7" fill="none" stroke="#FFFFFF" stroke-width="1.2" stroke-linecap="round" stroke-linejoin="round" />
  </g>
</svg>