<?xml version="1.0" encoding="UTF-8" standalone="no"?>
<svg width="20px" height="20px" viewBox="0 0 20 20" version="1.1" xmlns="http://www.w3.org/2000/svg" xmlns:xlink="http://www.w3.org/1999/xlink">
    <!-- Generator: Sketch 50.2 (55047) - http://www.bohemiancoding.com/sketch -->
    <title>input_icon_search</title>
    <desc>Created with Sketch.</desc>
    <defs></defs>
    <g id="1_Cloud2Cloud-Migration" stroke="none" stroke-width="1" fill="none" fill-rule="evenodd">
        <g id="01_Migration_C2C" transform="translate(-645.000000, -379.000000)" fill="#ADADAD" fill-rule="nonzero">
            <g id="input_icon_search" transform="translate(645.000000, 379.000000)">
                <path d="M19.6959131,18.2059649 L14.765571,13.2582456 C16.0332486,11.8042105 16.7278166,9.97473684 16.7278166,8.07017544 C16.7278166,3.62035088 12.9756946,0 8.3639083,0 C3.75212199,0 0,3.62035088 0,8.07017544 C0,12.52 3.75212199,16.1403509 8.3639083,16.1403509 C10.0952373,16.1403509 11.7451091,15.6364912 13.1557005,14.68 L18.1234983,19.6652632 C18.3311415,19.8733333 18.6104233,19.9880702 18.9097057,19.9880702 C19.1929877,19.9880702 19.4617237,19.8838596 19.6657303,19.694386 C20.0991989,19.2919298 20.1130176,18.6245614 19.6959131,18.2059649 Z M8.3639083,2.10526316 C11.7727464,2.10526316 14.5459275,4.78105263 14.5459275,8.07017544 C14.5459275,11.3592982 11.7727464,14.0350877 8.3639083,14.0350877 C4.9550702,14.0350877 2.18188912,11.3592982 2.18188912,8.07017544 C2.18188912,4.78105263 4.9550702,2.10526316 8.3639083,2.10526316 Z" id="Shape"></path>
            </g>
        </g>
    </g>
</svg>